<?xml version="1.0" encoding="UTF-8"?>
<svg id="Layer_1" data-name="Layer 1" xmlns="http://www.w3.org/2000/svg" viewBox="0 0 626 626">
  <defs>
    <style>
      .cls-1, .cls-2 {
        stroke-width: 0px;
      }

      .cls-2 {
        fill: #fff;
      }
    </style>
  </defs>
  <path class="cls-2" d="m382.04,0c81.32,0,162.64,0,243.96,0,0,208.67,0,417.33,0,626H193c-.23-4.2,1.73-6.31,5.96-5.96,10.78.89,20.37-2.61,29.3-8.14,10.83-6.7,22.12-8.77,34.38-4.59,2.34.8,4.93,1.55,7.32,1.36,3.28-.26,6.85-.81,9.63-2.39,3.42-1.95,5.96-1.5,8.58.78,1.29,1.12,2.33,2.52,3.85,4.21,1.26-4.92.12-8.78-3.93-10.08-4.91-1.58-10.29-2.55-15.42-2.4-5.9.18-11.52,1.04-16.64-3.03-2.47-1.96-2.88-3.52-1.15-6.19,9.83-15.21,19.54-30.49,29.34-45.82,1.5.24,3.05.5,4.81.78.26-3.48.49-6.62.77-10.32,1.75,1.16,2.67,1.88,3.69,2.41,1.1.57,2.29.96,4.44,1.83-.32-4.11-.48-7.34-.86-10.55-.39-3.23-.62-5.7,4-6.1,3.77-.33,5.5-3.51,5.22-7.31-.12-1.63-.78-3.22-1.22-4.81-2.53-9.13-5.2-18.23-7.51-27.42-.47-1.86-.01-4.24.76-6.06.72-1.69,2.44-2.94,4.57-5.34.79,0,3.1.21,5.35-.05,4.16-.47,6.02,1.39,6.79,5.34.95,4.9,2.45,9.69,3.52,14.57,4.27,19.55,2.97,38.03-10.11,54.43-1.96,2.46-3.27,2.71-5.61.94-2.56-1.94-5.3-3.65-9.11-6.23.5,3.84.44,6.38,1.21,8.63,1.37,3.98-.44,5.75-3.92,6.29-2.33.36-4.75.07-8.21.07-.38.47-1.56,1.91-3.03,3.7,3.68,1.04,6.56,1.85,9.43,2.66-.03.53-.06,1.06-.09,1.58-3.53.45-7.07.84-10.59,1.35-4.24.62-6.48,3-6.32,8.49,7.08-.82,14.1-.98,20.78-2.56,9.94-2.35,18.1-.18,24.91,7.25,4.36,4.76,8.16,10.48,16.2,7.28.16,3.1.28,5.27.4,7.66.92-.4,1.3-.46,1.5-.67,4.66-4.99,3.65-10.67-3.07-15.51-4.84-3.48-10.22-6.24-14.87-9.95-5.43-4.33-5.34-6.42-.75-11.4,5.19-5.62,10.97-10.77,15.57-16.84,5.02-6.62,14.45-10.15,14.7-20.23,0-.16.53-.3,1.03-.57,1.4.83,2.91,1.71,4.55,2.68,1.22-4.29,1.39-8.92,3.66-11.99,4.59-6.21,4.09-12.24,1.84-18.8-.48-1.41-.69-2.92-.97-4.39-.09-.44-.01-.91-.01-1.55,1.57-.12,2.96-.22,4.78-.36-1.4-4.72-2.68-9.06-4.06-13.73,2.02.25,3.21.4,4.86.61-.47-2.44-.58-4.47-1.26-6.28-1.64-4.33-.42-6.98,3.63-9.36,2.87-1.68,4.93-4.73,7.38-7.14,2.87-2.82,5.29-6.59,8.73-8.24,9.28-4.46,18.91-8.25,28.59-11.77,2.86-1.04,6.59-1.09,9.55-.25,10.72,3.03,21.41,6.26,31.87,10.1,11.29,4.15,21.46,2.09,30.67-4.71,18.33-13.51,36.79-26.9,54.4-41.31,20.15-16.49,41.49-31.8,56.61-53.79,3.33-4.84,7.82-8.47,6.84-15.08-.15-1.04.96-2.26.86-3.33-.25-2.59,0-6-1.51-7.56-8.44-8.69-15.74-10.24-26.59-5.59-29.51,12.67-59.2,24.93-88.54,37.98-19.02,8.46-38.17,13.78-59.41,12.3-19.56-1.36-39.28-.53-58.94-.52-5.17,0-10.34.55-16.63.9,1.47-1.56,1.93-2.27,2.57-2.69,12.47-8.14,25.54-15,40.31-17.86,8.03-1.55,13.99-5.71,18.41-12.49,1.41-2.17,3.55-3.85,5.18-5.9,5.59-7.02,12.92-13,13.85-22.88.09-.99,1.2-1.85,1.67-2.85,1.12-2.4,2.38-4.77,3.12-7.29.96-3.26,1.5-6.64,2.16-9.99,1.55-7.91,4.38-15.85,4.26-23.75-.15-10.04-2.44-20.1-4.28-30.06-1.67-9-.99-18.84-8.41-26.08-.57-.56-.38-2.61.19-3.49,1.5-2.3,5.01-4.57,4.74-6.43-.35-2.45-3.54-4.5-5.47-6.75-.41-.48-.69-1.09-1.29-2.07,2.18-1.66,4.46-3.04,6.27-4.89,1.19-1.21,2.49-3.23,2.25-4.64-.21-1.24-2.33-2.47-3.86-3.11-2.36-.99-4.93-1.46-8.23-2.39,5.63-4.39,10.49-8.17,15.35-11.96l-.32-1.6c-4.74-1.44-9.49-2.89-15.03-4.57,3.84-3.46,7.16-6.2,10.19-9.23,3.66-3.67,2.85-7-2.2-7.67-4.87-.65-9.99-.79-14.82,0-6.97,1.14-13.77,3.32-20.65,5.05-.3-.36-.6-.73-.89-1.09,1.11-.71,2.29-1.33,3.32-2.14,9.44-7.38,18.96-14.67,28.24-22.24,3.9-3.18,8.09-6.5,7.66-13.43-20.33,9.67-40.16,19.1-59.99,28.53,17.99-20.36,40.08-36.89,51.25-62.73-20.48,14.48-40.95,28.97-61.43,43.45-.33-.37-.66-.74-1-1.12.74-1.2,1.39-2.48,2.24-3.6,9.2-12.22,18.66-24.26,27.59-36.68,6.47-9.01,13.74-17.68,16.57-28.82.36-1.43.5-2.93.73-4.39-.54-.31-1.07-.62-1.61-.93-18.42,18.94-36.85,37.88-55.27,56.83-.41-1.51-.27-2.65.27-3.56,7.92-13.29,15.75-26.64,23.9-39.79,7.57-12.22,9.35-25.02,5.02-38.7Z"/>
  <path class="cls-1" d="m382.04,0c4.32,13.68,2.55,26.48-5.02,38.7-8.15,13.15-15.98,26.5-23.9,39.79-.54.9-.68,2.04-.27,3.56,18.42-18.94,36.85-37.88,55.27-56.83.54.31,1.07.62,1.61.93-.24,1.47-.37,2.96-.73,4.39-2.83,11.14-10.09,19.81-16.57,28.82-8.93,12.42-18.39,24.46-27.59,36.68-.85,1.12-1.5,2.4-2.24,3.6.33.37.66.74,1,1.12,20.48-14.48,40.95-28.97,61.43-43.45-11.16,25.84-33.26,42.36-51.25,62.73,19.83-9.43,39.66-18.86,59.99-28.53.43,6.93-3.76,10.25-7.66,13.43-9.29,7.57-18.8,14.86-28.24,22.24-1.03.81-2.21,1.43-3.32,2.14.3.36.6.73.89,1.09,6.87-1.74,13.68-3.91,20.65-5.05,4.82-.79,9.95-.65,14.82,0,5.05.67,5.87,4.01,2.2,7.67-3.03,3.03-6.35,5.77-10.19,9.23,5.54,1.69,10.28,3.13,15.03,4.57l.32,1.6c-4.86,3.79-9.72,7.57-15.35,11.96,3.3.92,5.87,1.4,8.23,2.39,1.53.64,3.65,1.87,3.86,3.11.23,1.41-1.07,3.42-2.25,4.64-1.81,1.85-4.09,3.24-6.27,4.89.6.98.87,1.59,1.29,2.07,1.93,2.25,5.13,4.29,5.47,6.75.26,1.86-3.25,4.12-4.74,6.43-.57.88-.76,2.93-.19,3.49,7.42,7.24,6.75,17.08,8.41,26.08,1.85,9.96,4.14,20.02,4.28,30.06.12,7.89-2.71,15.83-4.26,23.75-.66,3.34-1.2,6.73-2.16,9.99-.74,2.52-2,4.89-3.12,7.29-.47,1-1.58,1.86-1.67,2.85-.93,9.89-8.26,15.86-13.85,22.88-1.63,2.05-3.76,3.73-5.18,5.9-4.42,6.78-10.38,10.94-18.41,12.49-14.78,2.85-27.85,9.71-40.31,17.86-.65.42-1.1,1.14-2.57,2.69,6.29-.36,11.46-.9,16.63-.9,19.65-.01,39.37-.85,58.94.52,21.24,1.48,40.39-3.84,59.41-12.3,29.34-13.05,59.03-25.32,88.54-37.98,10.85-4.66,18.14-3.1,26.59,5.59,1.52,1.56,1.26,4.98,1.51,7.56.11,1.07-1.01,2.28-.86,3.33.97,6.61-3.51,10.24-6.84,15.08-15.12,21.99-36.47,37.29-56.61,53.79-17.61,14.41-36.07,27.8-54.4,41.31-9.21,6.79-19.38,8.85-30.67,4.71-10.45-3.84-21.14-7.07-31.87-10.1-2.95-.83-6.68-.79-9.55.25-9.68,3.52-19.31,7.31-28.59,11.77-3.44,1.65-5.87,5.41-8.73,8.24-2.45,2.41-4.51,5.46-7.38,7.14-4.05,2.38-5.27,5.03-3.63,9.36.69,1.81.79,3.84,1.26,6.28-1.65-.21-2.84-.36-4.86-.61,1.38,4.67,2.66,9,4.06,13.73-1.82.14-3.21.24-4.78.36,0,.64-.07,1.11.01,1.55.29,1.47.49,2.98.97,4.39,2.25,6.55,2.75,12.58-1.84,18.8-2.27,3.08-2.44,7.7-3.66,11.99-1.65-.97-3.15-1.86-4.55-2.68-.5.26-1.02.41-1.03.57-.25,10.09-9.68,13.61-14.7,20.23-4.59,6.06-10.38,11.22-15.57,16.84-4.6,4.98-4.68,7.07.75,11.4,4.65,3.7,10.03,6.46,14.87,9.95,6.73,4.84,7.73,10.52,3.07,15.51-.2.22-.58.27-1.5.67-.12-2.39-.24-4.56-.4-7.66-8.03,3.2-11.84-2.52-16.2-7.28-6.81-7.44-14.97-9.6-24.91-7.25-6.68,1.58-13.7,1.74-20.78,2.56-.16-5.48,2.08-7.87,6.32-8.49,3.52-.51,7.06-.91,10.59-1.35.03-.53.06-1.06.09-1.58-2.87-.81-5.75-1.62-9.43-2.66,1.47-1.79,2.65-3.23,3.03-3.7,3.46,0,5.89.29,8.21-.07,3.48-.54,5.29-2.3,3.92-6.29-.77-2.25-.71-4.79-1.21-8.63,3.81,2.59,6.55,4.29,9.11,6.23,2.34,1.77,3.65,1.52,5.61-.94,13.07-16.41,14.38-34.89,10.11-54.43-1.07-4.88-2.57-9.67-3.52-14.57-.76-3.96-2.63-5.82-6.79-5.34-2.25.26-4.56.05-5.35.05-2.13,2.4-3.85,3.65-4.57,5.34-.78,1.82-1.23,4.19-.76,6.06,2.31,9.19,4.98,18.29,7.51,27.42.44,1.6,1.1,3.19,1.22,4.81.28,3.8-1.45,6.98-5.22,7.31-4.63.4-4.39,2.87-4,6.1.38,3.2.54,6.44.86,10.55-2.14-.87-3.34-1.26-4.44-1.83-1.02-.53-1.94-1.25-3.69-2.41-.28,3.7-.51,6.84-.77,10.32-1.75-.29-3.31-.54-4.81-.78-9.8,15.33-19.51,30.62-29.34,45.82-1.73,2.67-1.32,4.23,1.15,6.19,5.12,4.07,10.74,3.2,16.64,3.03,5.13-.15,10.51.82,15.42,2.4,4.05,1.3,5.19,5.16,3.93,10.08-1.53-1.69-2.57-3.09-3.85-4.21-2.62-2.28-5.16-2.73-8.58-.78-2.78,1.58-6.35,2.13-9.63,2.39-2.4.19-4.98-.56-7.32-1.36-12.26-4.19-23.55-2.11-34.38,4.59-8.93,5.52-18.52,9.03-29.3,8.14-4.23-.35-6.19,1.76-5.96,5.96h-1c-3.35-5.41-2.34-9.95,3.13-12.91,2.32-1.26,4.85-2.22,7.38-2.99,6-1.82,12.05-3.44,18.08-5.14.03-.47.05-.93.08-1.4-6.05-1.5-12.08-3.13-18.17-4.46-5.51-1.2-11.84-1.12-10.95-10.27-3.88,1.74-6.85,3.07-10.33,4.63,2.29-9.13,8.08-12.03,15.6-8.53,2.56,1.19,5.01,2.63,7.52,3.96,7.23,3.81,14.8,5.16,23.84,3.47-4.23-3.6-8.12-6.26-11.12-9.69-1.74-1.99-3.49-5.75-2.73-7.77,1.72-4.56,1.28-7.85-2.66-10.62,3.99-3.15,5.97-2.8,8.43,1.46,2.83,4.9,5.19,10.09,8.28,14.8,4.46,6.8,8.82,6.66,13.57.11,6.55-9.04,9.78-19.02,9.87-30.29.14-16.82,1.08-33.63,1.25-50.45.08-8.12-.54-16.29-1.52-24.35-.23-1.89-3.18-4.8-4.99-4.89-6.41-.32-13.03-.38-19.29.86-11.02,2.18-17.56,10.88-24.37,18.86-4.84,5.67-8.3,12.03-9.14,19.6-.64,5.81-2.49,7.33-8.05,5.51-2.46-.8-5.27-2.76-6.39-4.98-3.76-7.39-7.51-14.91-10-22.78-4.92-15.56-.05-31.02,1.83-46.47.13-1.09,1.43-2.15,2.37-3.02,9.73-9.03,20.4-17.11,27.66-28.6,5.28-8.36,6.04-14.1-.58-21.32-9.42-10.28-19.85-19.63-29.91-29.32-.92-.89-2.22-1.54-3.46-1.93-12.06-3.74-24.13-7.45-36.23-11.06-11.09-3.31-22.88-4.27-32.84-11.22-8.59-5.99-17.65-11.3-26.55-16.84-12.28-7.64-23.58-16.25-29.96-29.79-.57-1.2-.6-2.66-.89-4,1.5.11,3.23-.23,4.47.4,5.52,2.8,10.9,5.88,16.33,8.86-.83-4.39-2.38-8-4.16-11.5-17.28-33.99-29.35-69.57-32.86-107.74-1.37-14.85-.54-29.64,2.67-44.21.72-3.28,2.59-6.31,3.93-9.46.77.13,1.54.25,2.32.38l8.64,49.86c.63,0,1.25-.02,1.88-.03,1.65-6.86,2.92-13.84,5.02-20.56,4.76-15.24,9.81-30.39,15.02-45.48,1.31-3.79,3.39-7.5,8.79-8.74,0,1.7.15,2.94-.02,4.15-1.04,7.08-2.36,14.13-3.2,21.24-1.33,11.22-2.78,22.46-3.34,33.73-.29,5.8,1.12,11.73,5.18,17.52,1.59-5.94,2.92-11.03,4.32-16.1,5.61-20.23,11.67-40.32,22.43-58.56,2.41-4.09,4.73-8.59,11.72-10.51-.89,7.26-1.12,13.52-2.49,19.54-3.1,13.63-6.89,27.1-10.12,40.71-.95,4.02-.95,8.26-1.38,12.41.46.1.92.19,1.38.29.7-.85,1.55-1.61,2.07-2.56,5.24-9.44,10.56-18.84,15.61-28.38,5.39-10.18,10.62-20.43,19.38-28.25,1.19-1.06,3.06-1.37,4.61-2.02.07,1.67.58,3.47.13,5-5.25,18.06-10.65,36.07-15.98,54.1-.53,1.8-.86,3.66-1.28,5.49.69.51,1.37,1.02,2.06,1.53.4-1.09.6-2.3,1.22-3.24,7.46-11.21,14.88-22.45,22.53-33.54,3.64-5.28,8.19-9.7,14.91-12.06-.08,3.89-.34,7.68-1.65,11.05-3.38,8.68-7.23,17.18-10.9,25.75-1.64,3.82-3.5,7.57-4.88,11.48-1.32,3.73-2.14,7.64-3.18,11.46,15.52-13.27,22.47-33.52,40.2-44.84-.15,4.24-.77,8.26-2.32,11.88-4.13,9.63-8.72,19.07-13,28.64-.95,2.12-1.38,4.47-2.05,6.72.47.26.94.52,1.41.78,1.69-1.92,3.43-3.78,5.05-5.76,6.95-8.49,13.69-17.14,20.89-25.41,1.83-2.1,5.03-2.99,7.61-4.44-.03,2.83.3,5.72-.15,8.49-1.05,6.45-2.48,12.85-3.97,20.34,7.46-4.16,10.56-11.9,18.96-14.73v21.95c3.77-2.55,6.54-4.42,9.46-6.39,5.89,9.78.84,19.39,1.39,29.13,1.38-.73,2.2-1.3,3.11-1.63,3.64-1.32,7.3-2.57,10.96-3.84.7,3.95,1.95,7.9,1.96,11.86.02,4.2-1.13,8.4-1.9,13.42,2.49-.71,4.19-1.23,5.89-1.68,4.96-1.31,8.98.07,12.75,3.6,2.43,2.27,5.57,3.9,8.61,5.35,1.38.66,4.29.86,4.76.14.93-1.43,1.23-3.82.75-5.51-2.04-7.2-4.54-14.27-6.72-21.44-4.11-13.55-8.45-27.07-8.54-41.43-.02-2.83.8-5.67,1.23-8.5.5-.08.99-.17,1.49-.25,2.08,2.91,4.15,5.83,6.94,9.74.7-2.97,1.21-4.53,1.42-6.14,3.22-24.76,10.26-48.49,19.52-71.6,8.14-20.32,13.4-41.14,11.39-63.28-.09-.99.23-2.02.48-3.94,12.81,19.47,8.28,40.43,8.38,61.46,17.98-21.31,29.49-44.93,37.77-70.38,6.28,19.87-.76,38.02-6.92,56.38,5.71-5.42,11.24-10.73,15.94-16.69,6.88-8.7,13.93-17.44,19.45-27C377.71,14.88,378.8,7.11,381.03,0c.33,0,.67,0,1,0Z"/>
  <path class="cls-2" d="m381.03,0c-2.23,7.11-3.32,14.88-6.96,21.17-5.53,9.56-12.57,18.29-19.45,27-4.71,5.96-10.23,11.27-15.94,16.69,6.17-18.36,13.21-36.51,6.92-56.38-8.28,25.45-19.78,49.07-37.77,70.38-.1-21.03,4.43-41.99-8.38-61.46-.24,1.92-.57,2.95-.48,3.94,2.01,22.14-3.25,42.96-11.39,63.28-9.26,23.11-16.29,46.83-19.52,71.6-.21,1.6-.72,3.17-1.42,6.14-2.79-3.91-4.86-6.83-6.94-9.74-.5.08-.99.17-1.49.25-.43,2.83-1.25,5.67-1.23,8.5.08,14.36,4.43,27.88,8.54,41.43,2.17,7.17,4.68,14.24,6.72,21.44.48,1.7.18,4.08-.75,5.51-.47.72-3.38.53-4.76-.14-3.04-1.46-6.19-3.08-8.61-5.35-3.77-3.53-7.8-4.91-12.75-3.6-1.71.45-3.4.97-5.89,1.68.76-5.01,1.91-9.22,1.9-13.42-.02-3.95-1.26-7.9-1.96-11.86-3.66,1.27-7.32,2.52-10.96,3.84-.91.33-1.73.9-3.11,1.63-.55-9.75,4.5-19.35-1.39-29.13-2.92,1.98-5.69,3.84-9.46,6.39v-21.95c-8.39,2.83-11.5,10.57-18.96,14.73,1.49-7.49,2.92-13.89,3.97-20.34.45-2.76.12-5.65.15-8.49-2.57,1.45-5.78,2.34-7.61,4.44-7.2,8.27-13.94,16.93-20.89,25.41-1.62,1.97-3.36,3.84-5.05,5.76-.47-.26-.94-.52-1.41-.78.67-2.25,1.1-4.6,2.05-6.72,4.28-9.57,8.87-19.01,13-28.64,1.55-3.62,2.17-7.64,2.32-11.88-17.73,11.32-24.67,31.57-40.2,44.84,1.04-3.83,1.87-7.73,3.18-11.46,1.38-3.91,3.24-7.66,4.88-11.48,3.67-8.57,7.52-17.07,10.9-25.75,1.32-3.38,1.58-7.17,1.65-11.05-6.72,2.36-11.27,6.78-14.91,12.06-7.65,11.09-15.07,22.33-22.53,33.54-.62.94-.82,2.15-1.22,3.24-.69-.51-1.37-1.02-2.06-1.53.42-1.83.75-3.69,1.28-5.49,5.33-18.03,10.73-36.05,15.98-54.1.44-1.52-.07-3.33-.13-5-1.55.65-3.42.96-4.61,2.02-8.76,7.82-14,18.07-19.38,28.25-5.05,9.54-10.36,18.94-15.61,28.38-.52.94-1.37,1.71-2.07,2.56-.46-.1-.92-.19-1.38-.29.43-4.14.43-8.39,1.38-12.41,3.22-13.6,7.02-27.08,10.12-40.71,1.37-6.01,1.61-12.28,2.49-19.54-6.99,1.92-9.31,6.42-11.72,10.51-10.76,18.25-16.82,38.33-22.43,58.56-1.41,5.07-2.73,10.16-4.32,16.1-4.06-5.8-5.47-11.72-5.18-17.52.56-11.27,2.01-22.51,3.34-33.73.84-7.11,2.16-14.15,3.2-21.24.18-1.2.02-2.45.02-4.15-5.4,1.24-7.48,4.95-8.79,8.74-5.21,15.09-10.26,30.24-15.02,45.48-2.1,6.72-3.37,13.7-5.02,20.56-.63,0-1.25.02-1.88.03l-8.64-49.86c-.77-.13-1.54-.25-2.32-.38-1.34,3.15-3.21,6.18-3.93,9.46-3.21,14.57-4.04,29.36-2.67,44.21,3.51,38.17,15.58,73.75,32.86,107.74,1.78,3.5,3.33,7.11,4.16,11.5-5.43-2.98-10.81-6.06-16.33-8.86-1.24-.63-2.97-.29-4.47-.4.28,1.34.32,2.8.89,4,6.38,13.54,17.68,22.15,29.96,29.79,8.9,5.54,17.96,10.85,26.55,16.84,9.96,6.95,21.75,7.91,32.84,11.22,12.1,3.61,24.17,7.32,36.23,11.06,1.24.38,2.54,1.04,3.46,1.93,10.06,9.69,20.49,19.04,29.91,29.32,6.62,7.22,5.86,12.96.58,21.32-7.26,11.49-17.93,19.56-27.66,28.6-.94.87-2.24,1.93-2.37,3.02-1.88,15.45-6.75,30.91-1.83,46.47,2.49,7.87,6.25,15.39,10,22.78,1.12,2.21,3.94,4.17,6.39,4.98,5.56,1.82,7.41.29,8.05-5.51.84-7.57,4.3-13.93,9.14-19.6,6.81-7.98,13.35-16.68,24.37-18.86,6.26-1.24,12.88-1.18,19.29-.86,1.82.09,4.76,3,4.99,4.89.99,8.06,1.6,16.23,1.52,24.35-.16,16.82-1.11,33.63-1.25,50.45-.09,11.26-3.32,21.24-9.87,30.29-4.75,6.55-9.11,6.69-13.57-.11-3.09-4.71-5.46-9.9-8.28-14.8-2.46-4.26-4.45-4.61-8.43-1.46,3.94,2.78,4.38,6.06,2.66,10.62-.76,2.02.99,5.78,2.73,7.77,3,3.43,6.89,6.09,11.12,9.69-9.04,1.69-16.61.35-23.84-3.47-2.5-1.32-4.95-2.76-7.52-3.96-7.52-3.5-13.31-.6-15.6,8.53,3.48-1.56,6.46-2.89,10.33-4.63-.89,9.15,5.44,9.07,10.95,10.27,6.09,1.33,12.11,2.96,18.17,4.46-.03.47-.05.93-.08,1.4-6.03,1.7-12.09,3.32-18.08,5.14-2.53.77-5.06,1.73-7.38,2.99-5.46,2.96-6.48,7.5-3.13,12.91H0V0c126.98,0,254.01,0,381.03,0Z"/>
</svg>